<svg width="32" height="32" viewBox="0 0 32 32" fill="none" xmlns="http://www.w3.org/2000/svg">
  <!-- Squiggly Lightning Bolt with Gradient Fill -->
  <path
    d="M20 8C20 8 17 11 18 13C19 15 16 16 15 17.5C14 19 16 21 14.5 22C13 23 12 24 12 24M18 13L22 11M15 17.5L23 15M14.5 22L21 19"
    stroke="url(#stroke-gradient)"
    strokeWidth="2.5"
    strokeLinecap="round"
    strokeLinejoin="round"
  />
  
  <!-- Sparkle Effects -->
  <circle cx="22" cy="11" r="1.5" fill="url(#bg-gradient)" />
  <circle cx="23" cy="15" r="1.5" fill="url(#bg-gradient)" />
  <circle cx="21" cy="19" r="1.5" fill="url(#bg-gradient)" />
  
  <!-- Small Decorative Dots -->
  <circle cx="19" cy="9" r="0.8" fill="url(#bg-gradient)" opacity="0.8" />
  <circle cx="13" cy="23" r="0.8" fill="url(#bg-gradient)" opacity="0.8" />

  <!-- Gradient Definitions -->
  <defs>
    <linearGradient id="bg-gradient" x1="0" y1="0" x2="32" y2="32" gradientUnits="userSpaceOnUse">
      <stop offset="0%" stopColor="#7DD3FC" /> <!-- sky-300 -->
      <stop offset="100%" stopColor="#38BDF8" /> <!-- sky-400 -->
    </linearGradient>
    <linearGradient id="stroke-gradient" x1="0" y1="0" x2="32" y2="32" gradientUnits="userSpaceOnUse">
      <stop offset="0%" stopColor="#38BDF8" /> <!-- sky-400 -->
      <stop offset="100%" stopColor="#0EA5E9" /> <!-- sky-500 -->
    </linearGradient>
  </defs>
</svg> 